<svg width="32" height="32" viewBox="0 0 32 32" fill="none" xmlns="http://www.w3.org/2000/svg">
  <defs>
    <!-- Premium Glow Filters -->
    <filter id="eye-glow" x="-50%" y="-50%" width="200%" height="200%">
      <feGaussianBlur stdDeviation="0.8" result="blur" />
      <feComposite in="SourceGraphic" in2="blur" operator="over" />
    </filter>
    <filter id="collar-glow" x="-20%" y="-20%" width="140%" height="140%">
      <feGaussianBlur stdDeviation="1.2" result="blur" />
      <feColorMatrix in="blur" type="matrix" values="0 0 0 0 1  0 0 0 0 0.55  0 0 0 0 0  0 0 0 1 0" />
      <feComposite in="SourceGraphic" operator="over" />
    </filter>
    
    <style>
      @keyframes pulse-glow {
        0%, 100% { filter: url(#eye-glow) brightness(1); opacity: 0.9; }
        50% { filter: url(#eye-glow) brightness(1.5); opacity: 1; }
      }
      @keyframes collar-pulse {
        0%, 100% { opacity: 0.8; filter: url(#collar-glow) brightness(1); }
        50% { opacity: 1; filter: url(#collar-glow) brightness(1.3); }
      }
      @keyframes blink {
        0%, 96%, 100% { transform: scaleY(1); }
        98% { transform: scaleY(0.1); }
      }
      .spike-eye {
        animation: pulse-glow 3s infinite ease-in-out;
        transform-origin: center;
      }
      .spike-eye-container {
        animation: blink 6s infinite;
        transform-origin: center;
      }
      .spike-collar {
        animation: collar-pulse 4s infinite ease-in-out;
      }
    </style>
  </defs>

  <!-- Background Circle (Optional, for contrast) -->
  <circle cx="16" cy="16" r="15" fill="#0A0E1A" />
  
  <!-- Spike Head Group -->
  <g id="spike-head">
    <!-- Main Face Shape -->
    <path d="M16 6C10 6 6 10 6 16C6 20 8.5 24 16 24C23.5 24 26 20 26 16C26 10 22 6 16 6Z" fill="#1F2937" stroke="#374151" stroke-width="0.5"/>
    
    <!-- Ears -->
    <path d="M6 10C4 10 2 12 2 16C2 20 4 22 6 22V10Z" fill="#111827" stroke="#374151" stroke-width="0.5"/>
    <path d="M26 10C28 10 30 12 30 16C30 20 28 22 26 22V10Z" fill="#111827" stroke="#374151" stroke-width="0.5"/>
    
    <!-- Metallic Highlights -->
    <path d="M10 8C12 7 14 7 16 7" stroke="#4B5563" stroke-width="0.5" stroke-linecap="round"/>
    <path d="M16 8C18 8 20 8 22 9" stroke="#4B5563" stroke-width="0.5" stroke-linecap="round"/>
    
    <!-- Eyes Container (for blinking) -->
    <g class="spike-eye-container">
      <circle class="spike-eye" cx="12" cy="15" r="2.5" fill="#FF8C00" />
      <circle class="spike-eye" cx="20" cy="15" r="2.5" fill="#FF8C00" />
      <!-- Pupil Highlights -->
      <circle cx="12.5" cy="14" r="0.8" fill="white" opacity="0.6" />
      <circle cx="20.5" cy="14" r="0.8" fill="white" opacity="0.6" />
    </g>
    
    <!-- Nose/Muzzle -->
    <path d="M16 17C14.5 17 13.5 18 13.5 19C13.5 20 14.5 21 16 21C17.5 21 18.5 20 18.5 19C18.5 18 17.5 17 16 17Z" fill="#030712" />
    <path d="M16 18C16.5 18 17 18.2 17 18.5C17 18.8 16.5 19 16 19C15.5 19 15 18.8 15 18.5C15 18.2 15.5 18 16 18Z" fill="#FF8C00" opacity="0.5" />

    <!-- Collar -->
    <path class="spike-collar" d="M10 23.5C10 23.5 12 25 16 25C20 25 22 23.5 22 23.5V25.5C22 25.5 20 27 16 27C12 27 10 25.5 10 25.5V23.5Z" fill="#FF8C00" />
    <!-- Collar Detail (Metal Latch) -->
    <rect x="14.5" y="24" width="3" height="2" rx="0.5" fill="#4B5563" stroke="#1F2937" stroke-width="0.3"/>
  </g>
</svg>
